<!DOCTYPE svg PUBLIC "-//W3C//DTD SVG 1.1//EN" "http://www.w3.org/Graphics/SVG/1.1/DTD/svg11.dtd">
<!-- Uploaded to: SVG Repo, www.svgrepo.com, Transformed by: SVG Repo Mixer Tools -->
<svg width="800px" height="800px" viewBox="0 0 24 24" xmlns="http://www.w3.org/2000/svg" fill="none">
<g id="SVGRepo_bgCarrier" stroke-width="0"/>
<g id="SVGRepo_tracerCarrier" stroke-linecap="round" stroke-linejoin="round"/>
<g id="SVGRepo_iconCarrier">
<path stroke="#00AAA1" stroke-linecap="round" stroke-linejoin="round" stroke-width="2" d="M7 12h-.394a2 2 0 0 0-1.11.336L3 14V5a2 2 0 0 1 2-2h7a2 2 0 0 1 2 2v2"/>
<path fill="#00AAA1" stroke="#00AAA1" stroke-linecap="round" stroke-linejoin="round" stroke-width="2" d="M12 10h7a2 2 0 0 1 2 2v9l-2.496-1.664a2 2 0 0 0-1.11-.336H12a2 2 0 0 1-2-2v-5a2 2 0 0 1 2-2z"/>
</g>
</svg>