<svg width="448" height="348" viewBox="0 0 448 348" fill="none" xmlns="http://www.w3.org/2000/svg">
<path d="M413.599 0.689941H193.397C174.812 0.689941 159.888 15.6139 159.888 34.1989V79.8159H38.242C17.404 79.8159 0.509003 96.7109 0.509003 117.549V242.292C0.509003 263.13 17.404 280.025 38.242 280.025H65.274V341.411C65.274 343.664 66.682 345.916 68.935 347.043C69.78 347.325 70.624 347.606 71.469 347.606C72.877 347.606 74.285 347.043 75.411 346.198L150.032 280.306H250.277C271.115 280.306 288.01 263.411 288.01 242.573V201.18H413.598C432.183 201.18 447.107 185.974 447.107 167.671V34.4809C447.108 15.6149 432.184 0.689941 413.599 0.689941ZM275.903 194.986V242.574C275.903 256.653 264.358 268.198 250.278 268.198H147.78C146.372 268.198 144.964 268.761 143.838 269.606L77.383 328.176V274.111C77.383 270.732 74.567 268.198 71.47 268.198H38.242C24.163 268.198 12.617 256.653 12.617 242.574V117.831C12.617 103.752 24.162 92.2069 38.242 92.2069H165.801H244.082H250.277C264.356 92.2069 275.902 103.752 275.902 117.831C275.903 145.427 275.903 167.109 275.903 194.986ZM258.444 80.6609C257.881 80.6609 252.249 79.8159 251.686 79.8159C253.094 76.4369 255.347 73.0579 257.881 70.2419C268.863 59.2599 288.011 59.2599 298.993 70.2419C301.246 72.4949 305.188 72.4949 307.441 70.2419C318.705 58.9779 337.289 58.9779 348.553 70.2419C359.817 81.5059 360.098 99.8089 348.553 111.354L303.217 156.69L287.73 141.203C288.011 119.239 292.235 88.2639 258.444 80.6609ZM435 167.391C435 179.218 425.426 189.073 413.318 189.073H287.729V158.661C299.556 170.488 299.837 171.614 303.216 171.614C306.877 171.614 303.498 173.867 356.999 120.083C364.883 112.198 369.107 102.061 369.107 91.0789C369.107 57.5699 330.248 37.8589 303.216 58.4149C296.176 53.0649 287.447 50.2489 278.436 50.2489C260.414 50.2489 244.082 62.0759 239.014 80.0969H171.714V34.4799C171.714 22.6529 181.288 13.0789 193.396 13.0789H413.598C425.425 13.0789 435.28 22.6529 435.28 34.4799L435 167.391ZM206.913 155.564H179.881C191.708 113.044 195.368 118.394 157.354 118.394C153.13 118.394 154.538 117.831 128.35 155.564C111.173 155.564 97.657 155.564 81.606 155.564C78.227 155.564 75.693 158.38 75.693 161.477V227.087C75.693 230.466 78.509 233 81.606 233H108.92H189.736C192.552 233 194.805 231.029 195.649 228.495C214.234 158.38 214.515 161.195 211.981 157.816C210.574 156.69 208.885 155.564 206.913 155.564ZM102.726 221.174H87.52V167.672H102.726V221.174ZM184.95 221.174H114.835V167.672H131.167C133.138 167.672 135.109 166.827 136.236 165.138L160.171 130.503H173.969L165.803 160.07C165.24 161.759 165.803 163.731 166.929 165.42C169.463 168.518 169.463 167.673 199.03 167.673L184.95 221.174Z" fill="#00AAA1"/>
</svg>
