<svg width="64" height="64" viewBox="0 0 64 64" fill="none" xmlns="http://www.w3.org/2000/svg">
<path d="M62.959 0.507061C62.123 1.24206 0.372999 0.460061 1.256 0.729061C0.390999 4.58906 0.797999 32.0551 0.880999 39.1741C0.915999 42.1371 23.595 62.1411 23.595 62.1411C23.595 62.1411 59.722 62.8481 62.215 63.0751C62.844 63.1311 63.795 -0.226939 62.959 0.507061ZM4.834 40.6221C4.722 40.4451 22.375 40.5511 22.866 40.8811C22.72 41.1801 22.635 58.4241 22.887 58.5001C22.86 58.5251 4.785 40.5411 4.834 40.6221ZM25.142 60.2971C24.791 59.7521 24.735 38.8541 24.735 38.8541C24.735 38.8541 2.995 38.5261 2.849 38.8111C2.935 38.2271 2.95 3.29506 3.556 2.81406C3.386 4.14006 59.739 3.29106 60.049 2.85206C60.729 2.40806 59.794 59.8411 60.618 60.0921C60.533 60.1741 24.986 60.0451 25.142 60.2971Z" fill="#00AAA1"/>
</svg>
